<svg id="_1" data-name="1" xmlns="http://www.w3.org/2000/svg" viewBox="0 0 457.71 158.24"><defs><style>.cls-1{fill:#f20;}.cls-1,.cls-2{fill-rule:evenodd;}.cls-2{fill:#4d4d4d;}</style></defs><title>logo</title><path class="cls-1" d="M271.46,224.78v71.86a3.43,3.43,0,0,1-1,2.52,3.3,3.3,0,0,1-2.41,1H267.9a3.3,3.3,0,0,1-2.41-1,3.43,3.43,0,0,1-1-2.52V224.9H248.3V297.1a2.52,2.52,0,0,1-.86,2,3.43,3.43,0,0,1-1.89.86H245a3.9,3.9,0,0,1-2.12-.92,2.44,2.44,0,0,1-1-1.95V222.37a4,4,0,0,1,4-4.13l21.32-.11C270.79,218.58,271.46,220.06,271.46,224.78Z" transform="translate(-218.85 -178.17)"/><path class="cls-2" d="M239.25,214a2.2,2.2,0,0,0-1.72.8,2.74,2.74,0,0,0-.69,1.83v75.65c0,5-4.2,8.25-8.94,8.25a9.05,9.05,0,0,1-9.05-9.17V211.71a3.39,3.39,0,0,1,1-2.41,3.24,3.24,0,0,1,2.46-1,2.93,2.93,0,0,1,2.41,1.15,4.1,4.1,0,0,1,.92,2.64v79.43c0,3.44,4.7,3.07,4.7.46V216.07a8.28,8.28,0,0,1,2.52-6.07,8.71,8.71,0,0,1,6.42-2.64h1.69q4.46,0,15.45.17,13.47,0.17,17.36.17a9.39,9.39,0,0,1,9.4,9.4v74.5a3.53,3.53,0,0,0,.57,2,2.12,2.12,0,0,0,1.6,1h0.11a2,2,0,0,0,1.66-.86,3.3,3.3,0,0,0,.63-2V214a2.44,2.44,0,0,1,1-1.95,3.91,3.91,0,0,1,2.12-.92h0.11a3.64,3.64,0,0,1,2.41.86,2.66,2.66,0,0,1,1,2.12v78.05a8.2,8.2,0,0,1-2.75,6.3,9.4,9.4,0,0,1-13-.12,8.28,8.28,0,0,1-2.52-6.07V216.07c0-2.86-3.47-2.16-5.7-2.21Q262,213.64,239.25,214Z" transform="translate(-218.85 -178.17)"/><path class="cls-1" d="M348.59,246a0.23,0.23,0,0,1-.06.17l-0.17.17-0.23.23a0.47,0.47,0,0,1-.34.11,0.7,0.7,0,0,1-.52-0.17,1.51,1.51,0,0,1-.29-0.4l-0.17-.17a0.23,0.23,0,0,1-.06-0.17l-19-31.86a4.31,4.31,0,0,1-.4-4,3,3,0,0,1,1.2-1.26,3.58,3.58,0,0,1,4.81,1.26l14.56,24.07,2.35-3.54,13-20.63a3.4,3.4,0,0,1,2.11-1.52,3.24,3.24,0,0,1,2.64.44,2.94,2.94,0,0,1,1.43,2.25,4.1,4.1,0,0,1-.63,2.72l-11.05,17.56-1.84,2.92C353.86,237.48,351.63,241.11,348.59,246Z" transform="translate(-218.85 -178.17)"/><path class="cls-2" d="M441.17,214.93a2,2,0,0,0-2.26,1.95v75.07a8.32,8.32,0,0,1-2.58,6.19,8.91,8.91,0,0,1-6.13,2.64h-0.34a9.76,9.76,0,0,1-6.65-2.52,7.93,7.93,0,0,1-2.87-6.19l-0.11-17-0.12-58.68c0-1.22-.32-1.38-1.43-1.38h-0.4c-9,0-22.94-.08-26.81-0.17-4.58-.11-4.67-6.76.34-6.76,9.21,0,18.4-.11,27.61-0.18a7.82,7.82,0,0,1,7.79,8v75.42a2.24,2.24,0,0,0,.75,1.72,3,3,0,0,0,1.66.8,2.49,2.49,0,0,0,1.72-.75,2.23,2.23,0,0,0,.8-1.66V215.84c0-4,2.89-7.68,7.11-7.68,11.58,0,23.16-.16,34.74-0.23,2.25,0,3.63,1.1,3.63,3.55a3.66,3.66,0,0,1-3,3.43,7.12,7.12,0,0,1-1.61.14C461.23,215,453.12,215,441.17,214.93Z" transform="translate(-218.85 -178.17)"/><path class="cls-1" d="M450.14,226.5l0.11,12.15,0.12,58.68a3.34,3.34,0,0,1-5.9,2.18,3.81,3.81,0,0,1-.86-2.52V224a4.07,4.07,0,0,1,4.36-4.36q2.55,0,5,0h0.17c7,0,13.93-.06,20.89-0.11,2.25,0,3.63,1.1,3.63,3.55a3.82,3.82,0,0,1-4,3.55l-4.4,0H468.6l-8,0-7.79,0h-2.7Z" transform="translate(-218.85 -178.17)"/><path class="cls-2" d="M540.43,195.55l-0.12.11v0.11h0v0.11h0a6.85,6.85,0,0,1-2.18,5.27,7.37,7.37,0,0,1-5.39,2.29h-0.34a8.2,8.2,0,0,1-4.93-2.06,7.12,7.12,0,0,1-2.29-5V196a7,7,0,0,1,2.18-5.39,7.37,7.37,0,0,1,5.39-2.29,7.48,7.48,0,0,1,5.33,2.12,7.3,7.3,0,0,1,2.35,5.21v-0.11Z" transform="translate(-218.85 -178.17)"/><path class="cls-2" d="M501.69,196.13h-0.11a7.15,7.15,0,0,1,2.23-5.22,7.28,7.28,0,0,1,5.33-2.23h0.34a7.18,7.18,0,0,1,5.1,2.35,7.34,7.34,0,0,1,2.12,5.21v0.46a6.8,6.8,0,0,1-2.35,5,7.56,7.56,0,0,1-5.22,2,7.86,7.86,0,0,1-7.45-7.45v-0.11Z" transform="translate(-218.85 -178.17)"/><path class="cls-1" d="M504.33,282.66a2.3,2.3,0,0,0,.75,1.66,2.19,2.19,0,0,0,1.55.75h0.23a2.15,2.15,0,0,0,1.49-.86,2.51,2.51,0,0,0,.57-1.55v-22a5.1,5.1,0,0,1,.4-2.06,5.62,5.62,0,0,1,1.2-1.72,6.29,6.29,0,0,1,1.6-1,4.62,4.62,0,0,1,1.83-.34l26.94-.11a2.32,2.32,0,0,0,1.66-.4,1.89,1.89,0,0,0,.86-1.32V253a3.14,3.14,0,0,0-.52-1.38,1.26,1.26,0,0,0-1.09-.57l-28.54-.11a3.52,3.52,0,0,1-1.55-.11,3.16,3.16,0,0,1-1.32-.8,3.21,3.21,0,0,1-1-1.32,4.94,4.94,0,0,1-.29-1.78V224.44c0-3.87,2.62-5.16,6.07-5.16l29.11-.11a0.33,0.33,0,0,0,.23.11h0.34a5.09,5.09,0,0,0,1.78-.57,1.56,1.56,0,0,0,.86-1.49,1.65,1.65,0,0,0-.75-1.43,3.59,3.59,0,0,0-1.55-.63H544.9L511.74,215a3.17,3.17,0,0,1-2.46-.92,3.54,3.54,0,0,1-1-2.52,3.52,3.52,0,0,1,3.55-3.55l32.93-.11c5.15,0,9.86,4.1,9.86,9.4s-4.94,9.05-10.09,9.05l-28.42-.11V244h26a9.16,9.16,0,0,1,8.71,9.28v0.23c-0.16,5.32-4.72,8.94-9.86,8.94l-25-.12V283a8.14,8.14,0,0,1-2.69,6.48,9.37,9.37,0,0,1-6.36,2.35h-0.34a9,9,0,0,1-6.19-2.69A8.29,8.29,0,0,1,497.8,283V211.37a3.4,3.4,0,0,1,1-2.41,3.25,3.25,0,0,1,2.46-1,2.93,2.93,0,0,1,2.41,1.15,4.1,4.1,0,0,1,.92,2.64C504.56,235.49,504.33,259.12,504.33,282.66Z" transform="translate(-218.85 -178.17)"/><path class="cls-2" d="M498.06,293.32l48-.23a2.26,2.26,0,0,0,2.29-2.18,2.05,2.05,0,0,0-2.06-2.18L524,288.62c-3.76,0-4.77-2.79-4-4.67a3.84,3.84,0,0,1,3.52-2.32l22.89-.11a8.8,8.8,0,0,1,6.48,2.87,8.93,8.93,0,0,1,2.69,6.88c-0.15,4.64-3.36,8.83-8.25,8.83H497.45c-6.58,0-11.12-4.52-11.12-11v-14q0-31.86,0-63.73a3.4,3.4,0,0,1,1-2.41,3.24,3.24,0,0,1,2.46-1,2.93,2.93,0,0,1,2.41,1.15,4.1,4.1,0,0,1,.92,2.64c0,25.35.08,51,.08,76.45C493.21,291.63,494.27,293.34,498.06,293.32Z" transform="translate(-218.85 -178.17)"/><path class="cls-2" d="M596.25,215l18.91,32.32,35.93-57.49-7.67,3.86a3.4,3.4,0,0,1-2.59.21,3.24,3.24,0,0,1-2-1.74,2.93,2.93,0,0,1-.06-2.66,4.11,4.11,0,0,1,1.94-2l16.61-8.36c2.91-1.47,4.53-1.12,5.41-.26s1,2.23,1,5l-0.24,17.34a4.1,4.1,0,0,1-1,2.62,2.94,2.94,0,0,1-2.42,1.11,3.25,3.25,0,0,1-2.45-1.07,3.4,3.4,0,0,1-.94-2.42l0.11-8-37.87,61.76a9.81,9.81,0,0,1-1.55,2.06,3,3,0,0,1-2.12.8,2.76,2.76,0,0,1-1.95-.75,8.19,8.19,0,0,1-1.38-1.66L596,228.22l-0.11,4.24-0.12,58.68a10,10,0,0,1-2.58,6.82,8.15,8.15,0,0,1-6.36,2.92h-0.23a8.9,8.9,0,0,1-6.13-2.64,8.19,8.19,0,0,1-2.58-6.07V216.53a1.65,1.65,0,0,0-.57-1.15,2.31,2.31,0,0,0-1.26-.69,0.33,0.33,0,0,0-.23-0.11h-0.46a2.45,2.45,0,0,0-1.55.8,2.3,2.3,0,0,0-.63,1.6v79.09a4,4,0,0,1-.86,2.58,3.48,3.48,0,0,1-2.24,1.32h-0.23a3.12,3.12,0,0,1-2.35-1,3.39,3.39,0,0,1-1-2.41V216.87a8.57,8.57,0,0,1,2.69-6.25,8.7,8.7,0,0,1,6.36-2.69h0.23a9.72,9.72,0,0,1,6.25,2.46,7.5,7.5,0,0,1,2.69,5.9v75.42a2.54,2.54,0,0,0,2.52,2.52,3,3,0,0,0,1.66-.8,2.12,2.12,0,0,0,.75-1.61V215.15a2.29,2.29,0,0,1,1-1.89,4.12,4.12,0,0,1,2.12-.86h0.11a2.45,2.45,0,0,1,1.72.63,7.39,7.39,0,0,1,1.26,1.55,0.73,0.73,0,0,1,.17.29,0.72,0.72,0,0,0,.17.29V215Z" transform="translate(-218.85 -178.17)"/><path class="cls-1" d="M634.53,291.95V252.06l-14.1,22.24a6.64,6.64,0,0,1-6.87,3.17c-2-.39-3.63-1.76-4.94-4l-9.91-16.69a3.59,3.59,0,0,1,.28-4,3.47,3.47,0,0,1,5.56.46l10.14,16.69,23.68-37.85c1.48-2.37,3-1.34,3.07,0,0,0.72.07,2.55,0.07,3.42v56.77c0,2.93,4.7,2.9,4.7-.11V217.56a9.3,9.3,0,0,1,9.12-9.18c5.09,0,8.42,4.6,8.42,9.41v79.66c0,3.93-6.19,3.6-6.19,0v-79c0-1.61-.39-3.45-2.29-3.64-1.91,0-2.41,2-2.41,3.59v73.55a8.83,8.83,0,0,1-2.58,6.42,9.12,9.12,0,0,1-13,.12,8.47,8.47,0,0,1-2.81-6.42v-0.11Z" transform="translate(-218.85 -178.17)"/><path class="cls-1" d="M670.25,309.4a2,2,0,0,1,.5-0.55,2.16,2.16,0,0,1,.79-0.39,0.92,0.92,0,0,1,.36-0.21l0.39-.1a3,3,0,0,1,3.26.67,2.66,2.66,0,0,1,.52.63,3.1,3.1,0,0,1,.33.8,4.55,4.55,0,0,1,.09,1.87,2.72,2.72,0,0,1-.92,1.67c-7.48,7.79-13.87,14.18-21.66,21.66a2.72,2.72,0,0,1-1.67.92,4.54,4.54,0,0,1-1.87-.09,3.08,3.08,0,0,1-.8-0.33,2.66,2.66,0,0,1-.63-0.52,3,3,0,0,1-.67-3.26l0.1-.39a0.92,0.92,0,0,1,.21-0.36,2.16,2.16,0,0,1,.39-0.79,2,2,0,0,1,.55-0.5Z" transform="translate(-218.85 -178.17)"/><path class="cls-1" d="M654.35,309.4a2,2,0,0,0-.5-0.55,2.16,2.16,0,0,0-.79-0.39,0.92,0.92,0,0,0-.36-0.21l-0.39-.1a3,3,0,0,0-3.26.67,2.65,2.65,0,0,0-.52.63,3.08,3.08,0,0,0-.33.8,4.54,4.54,0,0,0-.09,1.87,2.72,2.72,0,0,0,.92,1.67c7.48,7.79,13.87,14.18,21.66,21.66a2.72,2.72,0,0,0,1.67.92,4.54,4.54,0,0,0,1.87-.09,3.08,3.08,0,0,0,.8-0.33,2.66,2.66,0,0,0,.63-0.52,3,3,0,0,0,.67-3.26l-0.1-.39a0.92,0.92,0,0,0-.21-0.36,2.16,2.16,0,0,0-.39-0.79,2,2,0,0,0-.55-0.5Z" transform="translate(-218.85 -178.17)"/><path class="cls-2" d="M376.45,209.75a3.4,3.4,0,0,1,2.09-1.54,3.25,3.25,0,0,1,2.64.41,2.94,2.94,0,0,1,1.45,2.24,4.1,4.1,0,0,1-.6,2.73l-23.81,39.28c-0.57,1.15-1.33,2-1.83,3.21a9.55,9.55,0,0,0-.69,2.87v33.35a7,7,0,0,1-2.75,5.73,9.78,9.78,0,0,1-12.72-.34,7.75,7.75,0,0,1-2.64-6V255.38a9.68,9.68,0,0,0-1.38-4.47l-21.55-36.45c-1.3-1.74-4.13-1.45-4.13.92A2.82,2.82,0,0,0,311,217l19.23,32.62c1.52,2.58,2.66,3.77,2.66,7l-0.12,40.23a3,3,0,0,1-3,3.2,3.11,3.11,0,0,1-3-3.34V257.22c0-.83-1.61-3.19-2.16-4.13L306,221.46a11.78,11.78,0,0,1-1.74-6.06,8.76,8.76,0,0,1,9.79-8.5,10.4,10.4,0,0,1,7.54,5.16L343,248q0.23,0.46.4,0.86a16.51,16.51,0,0,1,1.2,7.45v35.59c0,2.61,4.58,2.53,4.58-.12V258.59a15.4,15.4,0,0,1,3-8.94C360.21,236.3,368.28,223.06,376.45,209.75Z" transform="translate(-218.85 -178.17)"/><path class="cls-1" d="M391.47,226.39A3.4,3.4,0,0,1,388,223a3.72,3.72,0,0,1,3.69-3.45c7,0,13.93-.06,20.89-0.11,2.25,0,3.63,1.1,3.63,3.55a3.82,3.82,0,0,1-4,3.55Z" transform="translate(-218.85 -178.17)"/></svg>